<?xml version="1.0" encoding="UTF-8"?>
<!DOCTYPE svg PUBLIC "-//W3C//DTD SVG 1.1//EN" "http://www.w3.org/Graphics/SVG/1.1/DTD/svg11.dtd">
<!-- Creator: CorelDRAW X5 -->
<svg xmlns="http://www.w3.org/2000/svg" xml:space="preserve" width="117.828mm" height="124.53mm" style="shape-rendering:geometricPrecision; text-rendering:geometricPrecision; image-rendering:optimizeQuality; fill-rule:evenodd; clip-rule:evenodd"
viewBox="0 0 11783 12453"
 xmlns:xlink="http://www.w3.org/1999/xlink">
 <defs>
  <style type="text/css">
   <![CDATA[
    .fil6 {fill:#333333}
    .fil3 {fill:#474546}
    .fil7 {fill:#4D4D4D}
    .fil2 {fill:#639D82}
    .fil0 {fill:#72B395}
    .fil1 {fill:#86CBAB}
    .fil5 {fill:#ACDBC3}
    .fil4 {fill:#CFE8DB}
    .fil8 {fill:black;fill-rule:nonzero}
   ]]>
  </style>
 </defs>
 <g id="Слой_x0020_1">
  <metadata id="CorelCorpID_0Corel-Layer"/>
  <g id="_344797296">
   <g>
    <path class="fil0" d="M8113 6766c106,205 287,469 376,674 70,130 66,78 91,229 12,75 16,149 38,221 13,-30 35,-294 42,-351l39 -351c-4,-45 6,-75 7,-123l-587 -419c-8,39 -15,84 -5,121z"/>
    <path class="fil1" d="M8163 7557c5,63 -15,33 21,106 18,36 33,69 52,105l20 -8c31,3 206,-24 240,-39l-11 -252c0,-2 0,-5 0,-8 1,-15 1,-11 3,-22 -88,-205 -269,-469 -376,-674l-9 21c-1,2 -3,5 -4,8 -28,-10 -57,-11 -85,-7l102 206c131,334 161,170 102,390 -18,66 -29,112 -57,173z"/>
    <path class="fil2" d="M7676 7213l-3 16c10,11 10,5 -2,17 34,42 76,95 115,104 43,-35 277,-108 363,-158 -21,-36 -22,-64 -36,-103 -39,-106 -73,-238 -164,-332 -41,-1 -68,6 -110,15 -42,57 -137,149 -193,170 11,19 50,115 55,133 5,22 -12,115 -24,136z"/>
    <path class="fil3" d="M7581 7507c24,-105 -2,-148 35,-189 93,98 147,186 239,285 -3,-69 -9,-241 -28,-299 -39,-10 -81,-62 -115,-104l2 -17 3 -16c-59,-42 -133,-57 -196,-99 -21,31 -39,80 -52,115 -17,46 -33,80 -50,123l49 53c31,-47 46,-111 78,-158 26,35 13,30 -1,73 -21,62 -32,76 -18,116 9,27 38,98 54,118z"/>
    <path class="fil3" d="M8335 7680l-18 12c-26,-31 -49,-59 -75,-91 -52,-63 -26,-38 -45,-99 -47,-29 -127,-50 -166,-85 -28,31 -91,198 -110,245 108,115 56,-77 142,-105 11,89 -96,108 20,307 26,-76 7,-133 17,-167 17,-60 55,2 74,30l177 225c19,-31 3,-76 1,-131 -2,-48 -1,-96 -17,-142z"/>
    <polygon class="fil3" points="7442,7589 7435,7597 7449,7599 "/>
    <path class="fil3" d="M3819 3006l-19 25c-92,47 -525,264 -575,312l-645 713c-73,90 -148,155 -221,245l-441 473 0 12 123 -10c63,-55 1423,-358 1623,-413 111,-88 301,-177 427,-251 674,-398 1527,-888 2206,-1265 160,-89 295,-169 444,-255 275,-159 145,-80 353,-343l939 -1294c38,-51 116,-148 130,-200 -99,23 -410,205 -543,272 -187,93 -356,186 -550,284l-2162 1135c-89,54 -172,90 -269,138 -102,51 -163,92 -265,142 -126,62 -477,260 -556,278z"/>
    <path class="fil4" d="M1918 4774l441 -473c73,-90 147,-155 221,-245l645 -713c50,-48 483,-265 575,-312 0,-31 -9,-25 19,-25 114,-171 1278,-1251 1345,-1410l575 -1597 -858 732c-56,54 -91,72 -146,126l-1723 1497c-149,116 -454,407 -582,504 -151,115 -147,296 -210,585 -33,153 -296,1249 -302,1329z"/>
    <path class="fil0" d="M7094 2250c-208,263 -78,184 -353,343 -149,86 -284,166 -444,255 -679,377 -1532,867 -2206,1265 -126,74 -316,162 -427,251 22,110 154,382 200,488 166,-93 374,-141 569,-203 129,-41 507,-138 588,-188 347,-277 904,-586 1404,-982 91,-72 370,-300 459,-336l19 -19c428,-372 159,-45 582,-640 74,-104 486,-669 504,-737 -106,25 -786,477 -895,504z"/>
    <path class="fil4" d="M2254 5854c231,147 445,291 679,445 121,80 219,148 338,224 102,64 257,154 334,223 69,42 116,67 171,121 25,13 13,-2 43,26 49,21 96,49 131,92 4,-4 12,-7 15,-9l34 -26c19,-69 73,-136 122,-192l561 1235c-47,78 -92,117 -127,194 41,149 -95,915 -95,1183 53,-39 367,-687 440,-821 77,-142 192,-414 264,-517 -20,-124 -141,-380 -195,-509 -67,-161 -132,-325 -197,-482 -54,-131 -128,-396 -232,-467 -137,-94 -263,-200 -391,-279 -69,-13 -79,-28 -129,-73 -3,-3 -7,-7 -11,-10 -129,-121 -126,-95 -303,-201 -82,-49 -400,-210 -436,-293 -215,35 -886,53 -1017,138z"/>
    <path class="fil1" d="M3271 5716c36,83 354,244 436,293 176,106 174,80 303,201 3,3 7,7 11,10 50,45 60,61 129,73 78,7 1233,718 1503,874 58,34 65,21 87,87 75,49 190,223 257,306 66,80 197,268 267,315 -41,-174 -160,-650 -255,-773 -75,-98 -141,-194 -211,-293 -71,-102 -144,-195 -221,-303 -15,-21 -9,-16 -24,-34 -18,-22 -12,-16 -28,-30 -69,-63 -1009,-632 -1182,-776l-71 -25 83 -35c-155,9 -141,-7 -258,-84 -135,-89 -92,-83 -261,-14 -198,81 -364,142 -566,210z"/>
    <path class="fil4" d="M6282 4054l-39 19c-149,72 -430,144 -612,202 -193,61 -422,146 -610,185 -81,50 -460,148 -588,188 -195,61 -403,109 -569,203l-1192 591 115 6 1109 -81c44,-35 71,-33 226,-79 78,-23 144,-44 224,-68l897 -267c371,-111 223,-109 399,-183l155 -116 1125 -776c-92,2 -223,58 -322,86 -101,29 -215,86 -319,89z"/>
    <path class="fil1" d="M2041 4777c67,-6 11,-4 36,18 -42,49 -28,110 -27,190l3 649c4,-4 9,-16 11,-12 2,3 8,-9 10,-12l57 -100c132,-13 579,-23 658,-61l-115 -6 1192 -591c-46,-107 -179,-379 -200,-488 -201,56 -1561,358 -1623,413z"/>
    <path class="fil3" d="M5163 8030c31,47 175,398 203,470 63,163 24,455 24,655 33,-48 57,-137 74,-198 255,-918 289,-703 275,-1703 -22,-67 -28,-53 -87,-87 -270,-156 -1426,-867 -1503,-874 128,79 254,185 391,279 104,71 178,336 232,467 65,158 130,321 197,482 53,129 175,385 195,509z"/>
    <path class="fil0" d="M-2 5801c72,10 358,167 425,208 95,-34 228,-122 328,-174 131,-69 198,-105 341,-164 233,-96 496,-185 711,-296l-537 -11 549 -239 -644 -101c-94,2 -304,71 -394,99 -116,37 -264,72 -377,108 -75,25 -27,-10 -73,43l-328 527z"/>
    <path class="fil0" d="M3999 6948c-20,433 26,1033 -23,1451 -9,278 34,190 -68,457 -51,134 -115,258 -147,396 49,-36 334,-446 399,-532l395 -535c35,-77 81,-116 127,-194l-561 -1235c-50,55 -103,123 -122,192z"/>
    <path class="fil2" d="M3897 5367l-1109 81c-79,38 -526,48 -658,61l-57 100c-2,3 -9,16 -10,12 -2,-3 -7,8 -11,12 -14,54 -74,162 -110,201l-23 59c108,-7 241,-62 334,-40 131,-85 801,-103 1017,-138 202,-68 367,-129 566,-210 168,-69 126,-74 261,14 117,77 104,93 258,84l434 -37c60,-14 696,-211 790,-257l25 -14 -640 0 -1067 72z"/>
    <path class="fil4" d="M1918 4786c-38,47 -7,26 -70,51 -72,29 -622,150 -678,186l644 101 -549 239 537 11c-215,111 -478,200 -711,296 -143,59 -210,95 -341,164 -100,53 -233,140 -328,174l-25 101c161,-32 386,-123 548,-177 70,-23 185,-70 262,-87 107,-23 248,-8 361,-7l373 -4c36,-39 96,-147 110,-201l-3 -649c-1,-81 -15,-141 27,-190 -25,-21 32,-23 -36,-18l-123 10z"/>
    <path class="fil3" d="M6903 3123l-19 19c-89,37 -368,265 -459,336 -500,396 -1057,705 -1404,982 187,-39 417,-125 610,-185 183,-58 464,-130 612,-202l39 -19 324 -258 762 -693c58,-44 114,-94 155,-155 -151,35 -501,165 -621,175z"/>
    <path class="fil1" d="M3336 8282c-52,107 -55,39 -65,193 -5,76 -11,144 -15,220l39 6c48,35 358,156 427,162l220 -420c2,-4 5,-9 8,-12 16,-24 12,-18 26,-33 49,-417 3,-1018 23,-1451l-34 26c-3,2 -10,6 -15,9 -35,-43 -82,-71 -131,-92l-28 432c-101,667 102,428 -200,731 -91,91 -152,154 -255,228z"/>
    <path class="fil2" d="M2816 7138l-25 19c0,28 6,20 -25,20 -7,101 -18,227 23,291 104,8 519,210 700,252 18,-77 52,-117 83,-188 83,-195 206,-420 203,-665 -54,-54 -102,-80 -171,-121 -130,24 -380,27 -484,-16 -9,40 -79,222 -97,253 -21,37 -166,142 -208,155z"/>
    <path class="fil5" d="M5642 4771c-176,73 -28,72 -399,183l-897 267c-79,24 -146,45 -224,68 -156,46 -182,44 -226,79l1067 -72c27,-17 -2,-5 43,-15 401,-91 108,-4 474,-185l478 -259c59,-33 89,-54 149,-84 76,-37 89,-40 155,-97 -172,14 -478,105 -621,116z"/>
    <path class="fil3" d="M2190 7429c169,-113 188,-205 291,-213 0,254 -39,444 -39,698 85,-97 298,-342 347,-446 -41,-64 -30,-190 -23,-291l25 -20 25 -19c-26,-133 -109,-250 -141,-388 -68,16 -156,58 -220,90 -83,42 -148,66 -226,104l0 136c104,-24 206,-92 310,-116 -9,81 -21,58 -95,99 -109,59 -142,63 -175,135 -22,49 -75,183 -79,231z"/>
    <path class="fil3" d="M3121 6729c105,43 354,40 484,16 -78,-68 -233,-158 -334,-223 -119,-76 -217,-144 -338,-224 -234,-154 -448,-298 -679,-445 -93,-22 -226,34 -334,40l23 -59 -373 4c4,3 11,1 13,6 5,14 38,17 86,31 41,12 76,21 121,34l486 134c89,33 815,645 845,686z"/>
    <path class="fil3" d="M3295 8702l-39 -6c4,-77 10,-144 15,-220 10,-154 13,-86 65,-193 -28,-100 -110,-232 -118,-330 -78,7 -380,153 -466,194 0,297 176,-32 330,39 -99,135 -270,24 -369,446 133,-70 182,-174 237,-207 101,-60 73,75 63,137l-48 536c67,-18 102,-100 170,-179 59,-68 123,-133 160,-216z"/>
    <path class="fil3" d="M398 6110l25 -101c-67,-40 -353,-198 -425,-208l0 408c19,67 68,119 188,217 64,52 152,33 258,33 -122,-231 -100,-143 -46,-349z"/>
    <path class="fil5" d="M4355 5604l-83 35 71 25c242,15 517,77 776,77l-330 -175 -434 37z"/>
    <polygon class="fil3" points="5933,6478 5933,6459 5911,6475 "/>
    <polygon class="fil3" points="8164,756 8183,756 8167,734 "/>
    <polygon class="fil0" points="7989,1746 8009,1746 7993,1723 "/>
    <polygon class="fil3" points="2190,7429 2170,7429 2187,7451 "/>
    <path class="fil6" d="M495 5688l-185 97 0 -48c0,-12 2,-18 10,-26l2 -2 172 -112 154 120 -31 45 -123 -74z"/>
    <path class="fil3" d="M8934 5950l-16 4c-54,-10 -306,-60 -343,-56l-503 90c-60,14 -113,17 -173,31l-339 55 -4 5 55 36c44,-3 715,312 817,354 75,-1 184,24 261,33 413,52 931,123 1340,185 96,15 179,25 269,37 167,23 87,14 260,-29l816 -239c32,-9 97,-24 120,-42 -49,-22 -239,-47 -317,-62 -109,-22 -210,-38 -324,-59l-1279 -226c-55,-6 -102,-18 -158,-29 -59,-12 -98,-14 -158,-26 -73,-15 -285,-46 -324,-64z"/>
    <path class="fil4" d="M7559 6076l339 -55c60,-14 113,-17 173,-31l503 -90c37,-4 289,45 343,56 10,-13 4,-13 16,-4 104,-35 945,-111 1024,-156l762 -485 -599 29c-41,4 -62,1 -102,6l-1212 69c-101,0 -324,24 -409,23 -101,-1 -158,77 -279,178 -64,53 -531,429 -560,461z"/>
    <path class="fil0" d="M10558 6698c-173,43 -93,52 -260,29 -91,-12 -173,-23 -269,-37 -408,-62 -927,-134 -1340,-185 -77,-10 -186,-34 -261,-33 -27,53 -59,211 -75,271 100,15 203,62 305,100 67,25 258,107 309,112 236,-4 571,48 910,44 62,-1 253,-6 302,8l14 -2c301,-17 82,33 453,-80 65,-20 422,-123 452,-146 -52,-24 -486,-55 -541,-79z"/>
    <path class="fil4" d="M9629 7192l-23 -4c-86,-18 -228,-79 -323,-114 -101,-37 -225,-76 -317,-120 -51,-5 -242,-87 -309,-112 -102,-38 -205,-85 -305,-100l-694 -139 46 40 493 327c30,0 40,9 121,40 40,16 75,29 116,44l464 180c192,74 130,27 227,53l103 1 726 40c-39,-29 -113,-48 -163,-69 -52,-21 -119,-34 -163,-66z"/>
    <path class="fil1" d="M7610 6117c30,19 6,2 9,19 -34,7 -47,37 -73,71l-210 274c3,-1 9,-4 8,-2 0,2 6,-1 8,-2l56 -24c60,38 251,179 297,189l-46 -40 694 139c15,-60 48,-217 75,-271 -103,-42 -773,-357 -817,-354z"/>
    <path class="fil0" d="M6417 5883c27,28 96,187 111,226 51,16 136,23 195,33 77,14 117,20 197,42 129,36 269,83 395,107l-222 -180 309 78 -238 -252c-40,-30 -151,-69 -198,-86 -61,-22 -134,-56 -194,-77 -40,-14 -8,-13 -45,-6l-310 115z"/>
    <path class="fil2" d="M8198 6969l-493 -327c-46,-10 -237,-151 -297,-189l-56 24c-2,1 -9,4 -8,2 0,-2 -6,1 -8,2 -24,18 -84,44 -112,49l-29 18c47,32 122,52 154,92 83,7 371,217 473,273 107,37 196,65 306,96 93,26 77,10 105,91 24,70 14,73 81,119l195 125c30,14 362,138 416,149l15 2 -269 -208 -472 -317z"/>
    <path class="fil4" d="M7555 6081c-31,8 -12,9 -46,-1 -39,-11 -311,-139 -346,-142l238 252 -309 -78 222 180c-127,-23 -266,-71 -395,-107 -79,-22 -119,-28 -197,-42 -59,-10 -144,-17 -195,-33l-43 34c78,39 202,74 288,104 37,13 101,31 139,49 52,25 107,77 154,114l158 120c28,-5 88,-31 112,-49l210 -274c26,-34 40,-64 73,-71 -3,-17 21,0 -9,-19l-55 -36z"/>
    <path class="fil3" d="M10193 7003l-14 2c-49,-13 -241,-8 -302,-8 -339,4 -674,-47 -910,-44 92,44 216,83 317,120 96,35 237,96 323,114l23 4 220 -3 546 -43c39,0 79,-2 116,-15 -75,-34 -264,-94 -318,-128z"/>
    <path class="fil5" d="M9126 7286c-98,-26 -35,21 -227,-53l-464 -180c-41,-16 -76,-29 -116,-44 -80,-31 -91,-41 -121,-40l472 317c17,2 1,-3 23,8 198,92 47,33 260,76l285 47c36,5 55,6 90,13 44,9 51,12 97,10 -77,-50 -235,-112 -299,-153z"/>
    <path class="fil3" d="M6485 6143l43 -34c-15,-39 -84,-198 -111,-226l-133 172c-14,34 -10,72 8,152 10,43 53,63 98,98 24,-137 4,-93 94,-162z"/>
    <path class="fil5" d="M8267 7137l-48 -1 29 28c114,61 233,151 359,208l-121 -157 -218 -78z"/>
    <polygon class="fil0" points="11098,6777 11106,6783 11107,6768 "/>
    <path class="fil7" d="M6722 5932c33,130 61,84 -98,76 -37,-129 -45,-88 98,-76z"/>
   </g>
   <path class="fil8" d="M13 12420l0 -2034 366 0 0 210 6 0c31,-56 64,-102 98,-137 34,-34 78,-62 132,-84 54,-22 118,-32 191,-32 112,0 208,22 288,65 80,43 143,94 187,152 45,58 81,134 110,227 29,93 43,199 43,317 0,145 -23,280 -68,407 -45,127 -117,223 -214,288 -98,65 -214,98 -347,98 -98,0 -178,-19 -240,-56 -62,-37 -117,-94 -163,-170l-6 0 0 749 -382 0zm697 -1751c-109,0 -191,43 -246,129 -55,86 -83,194 -83,323 0,152 31,265 93,339 62,73 141,110 236,110 95,0 174,-37 235,-110 62,-73 93,-186 93,-340 0,-127 -28,-234 -82,-321 -55,-87 -137,-130 -246,-130zm2317 1184l-382 0 0 -893c0,-103 -21,-178 -63,-223 -41,-45 -101,-68 -177,-68 -65,0 -123,17 -174,49 -51,33 -87,74 -109,124 -22,50 -32,122 -32,217l0 794 -382 0 0 -1980 382 0 0 705c43,-73 101,-130 175,-172 74,-42 157,-62 251,-62 84,0 159,14 226,42 68,28 122,65 163,111 41,45 72,97 91,155 20,57 30,145 30,264l0 938zm680 -1000l-379 0c9,-150 68,-272 177,-367 109,-95 276,-142 500,-142 97,0 185,10 264,30 79,20 137,46 176,78 39,32 68,72 89,122 28,64 43,145 43,241l-1 749c0,87 7,145 23,172 16,29 38,48 66,56l0 61 -421 0c-23,-56 -35,-112 -36,-171 -78,82 -151,138 -218,169 -67,31 -147,46 -241,46 -96,0 -180,-18 -250,-55 -71,-37 -124,-90 -159,-160 -35,-70 -52,-145 -52,-226 0,-122 32,-225 96,-307 64,-83 182,-137 354,-163l323 -48c52,-7 87,-21 107,-40 19,-19 29,-45 29,-79 0,-53 -17,-94 -53,-124 -35,-29 -95,-44 -178,-44 -86,0 -147,15 -184,44 -36,30 -61,82 -73,157zm488 284c-33,17 -65,31 -96,41 -31,10 -73,21 -124,32 -99,19 -161,33 -186,43 -41,17 -73,40 -93,70 -21,29 -31,66 -31,109 0,58 18,105 54,141 36,36 83,54 140,54 84,0 162,-28 231,-82 70,-55 105,-141 105,-259l0 -148zm1121 -1267l0 1983 -382 0 0 -1983 382 0zm1234 1034c-18,-82 -46,-141 -84,-179 -38,-38 -92,-56 -163,-56 -95,0 -166,29 -214,89 -61,78 -92,203 -92,374 0,162 26,276 79,342 52,65 121,98 206,98 76,0 138,-24 187,-71 49,-47 76,-109 79,-185l397 0c-14,122 -52,227 -112,316 -61,89 -139,155 -234,199 -96,44 -202,66 -321,66 -146,0 -270,-32 -375,-96 -105,-64 -181,-155 -230,-274 -49,-118 -73,-245 -73,-381 0,-168 28,-314 82,-439 55,-125 137,-217 247,-276 110,-59 231,-89 364,-89 86,0 165,11 237,34 72,23 132,51 181,86 49,35 90,75 124,121 33,46 57,92 73,139 16,47 28,107 37,182l-397 0zm581 215c0,-147 31,-282 94,-405 62,-124 152,-216 270,-278 118,-62 247,-93 388,-93 146,0 278,33 395,97 118,65 206,158 264,281 58,122 88,255 88,398 0,151 -31,287 -93,410 -62,123 -152,214 -269,276 -117,62 -245,92 -385,92 -141,0 -270,-31 -388,-94 -118,-62 -208,-155 -270,-278 -62,-123 -94,-258 -94,-406zm397 0c0,131 29,239 88,324 58,84 148,127 270,127 106,0 190,-36 253,-108 63,-72 95,-190 95,-352 0,-130 -28,-236 -84,-318 -56,-82 -144,-123 -265,-123 -122,0 -212,42 -270,127 -58,84 -88,192 -88,323zm2696 733l-386 0 0 -893c0,-104 -21,-179 -63,-224 -41,-45 -103,-67 -185,-67 -101,0 -178,34 -229,103 -51,68 -77,164 -77,287l0 794 -382 0 0 -1466 370 0 0 216c51,-87 110,-152 180,-195 70,-43 159,-65 266,-65 157,0 280,45 370,133 90,89 135,218 135,388l0 989zm1562 -1466l-505 1442 -87 254c-34,87 -65,152 -92,193 -27,42 -56,74 -87,97 -30,23 -69,42 -116,57 -47,15 -105,23 -173,23 -70,0 -131,-8 -184,-24l0 -308 22 1c45,5 78,7 100,7 56,0 103,-20 143,-59 40,-39 61,-86 62,-141l-537 -1543 427 0 315 1080 6 0 300 -1080 408 0z"/>
  </g>
 </g>
</svg>
